<svg xmlns="http://www.w3.org/2000/svg" version="1.1" xmlns:xlink="http://www.w3.org/1999/xlink" xmlns:svgjs="http://svgjs.dev/svgjs" width="1500" height="1500" viewBox="0 0 1500 1500"><g transform="matrix(1,0,0,1,-0.21332335329316265,-0.21332335329350371)"><svg viewBox="0 0 334 334" data-background-color="#ffffff" preserveAspectRatio="xMidYMid meet" height="1500" width="1500" xmlns="http://www.w3.org/2000/svg" xmlns:xlink="http://www.w3.org/1999/xlink"><g id="tight-bounds" transform="matrix(1,0,0,1,0.04749999999998522,0.04750000000001364)"><svg viewBox="0 0 333.90454557049503 333.90454557049503" height="333.90454557049503" width="333.90454557049503"><g><svg></svg></g><g><svg viewBox="0 0 333.90454557049503 333.90454557049503" height="333.90454557049503" width="333.90454557049503"><g><path d="M0 166.952c0-92.205 74.747-166.952 166.952-166.952 92.205 0 166.952 74.747 166.953 166.952 0 92.205-74.747 166.952-166.953 166.953-92.205 0-166.952-74.747-166.952-166.953zM166.952 328.682c89.321 0 161.73-72.409 161.73-161.73 0-89.321-72.409-161.73-161.73-161.73-89.321 0-161.73 72.409-161.73 161.73 0 89.321 72.409 161.73 161.73 161.73z" data-fill-palette-color="tertiary" fill="#202046" stroke="transparent"></path><ellipse rx="160.27418187383762" ry="160.27418187383762" cx="166.95227278524752" cy="166.95227278524752" fill="#202046" stroke="transparent" stroke-width="0" fill-opacity="1" data-fill-palette-color="tertiary"></ellipse></g><g transform="matrix(1,0,0,1,86.30396743160546,71.17305217166896)"><svg viewBox="0 0 161.29661070728412 191.55844122715712" height="191.55844122715712" width="161.29661070728412"><g><svg viewBox="0 0 161.29661070728412 191.55844122715712" height="191.55844122715712" width="161.29661070728412"><g><svg viewBox="0 0 213.1584412271571 253.1503827441603" height="191.55844122715712" width="161.29661070728412"><g transform="matrix(1,0,0,1,0,128.7231379719495)"><svg viewBox="0 0 213.1584412271571 124.4272447722108" height="124.4272447722108" width="213.1584412271571"><g id="textblocktransform"><svg viewBox="0 0 213.1584412271571 124.4272447722108" height="124.4272447722108" width="213.1584412271571" id="textblock"><g><svg viewBox="0 0 213.1584412271571 76.5293285396223" height="76.5293285396223" width="213.1584412271571"><g transform="matrix(1,0,0,1,0,0)"><svg width="213.1584412271571" viewBox="1.45 -35.5 125.19 44.95" height="76.5293285396223" data-palette-color="#ffffff"><path d="M3.8-12.2L3.8-12.2Q4.75-11.45 7.08-10.15 9.4-8.85 11.53-8.85 13.65-8.85 13.65-10.5L13.65-10.5Q13.65-11.25 13.05-11.83 12.45-12.4 10.85-13.15 9.25-13.9 8.45-14.33 7.65-14.75 6.33-15.73 5-16.7 4.3-17.75L4.3-17.75Q2.3-20.6 2.3-25 2.3-29.4 5.58-32.43 8.85-35.45 14.15-35.45L14.15-35.45Q17.75-35.45 20.8-34.68 23.85-33.9 23.95-32.65L23.95-32.65Q23.95-32.5 23.95-32.35L23.95-32.35Q23.95-30.6 22.85-27.93 21.75-25.25 21.3-24.95L21.3-24.95Q18.1-26.6 15.58-26.6 13.05-26.6 13.05-24.8L13.05-24.8Q13.05-23.7 14.9-22.85L14.9-22.85Q15.3-22.65 16.05-22.3 16.8-21.95 17.78-21.48 18.75-21 19.88-20.28 21-19.55 22.3-18.35L22.3-18.35Q24.95-15.85 24.95-11.75L24.95-11.75Q24.95-6.4 22-3 19.05 0.4 12.9 0.5L12.9 0.5Q9.9 0.5 7.48 0 5.05-0.5 3.25-1.95 1.45-3.4 1.45-5.45 1.45-7.5 2.2-9.53 2.95-11.55 3.8-12.2ZM37.15-16.55L37.15-0.35Q37.15 0.1 32.97 0.1 28.8 0.1 28.8-0.6L28.8-0.6 28.8-34.85Q28.8-35.2 30.35-35.35 31.9-35.5 32.95-35.5L32.95-35.5Q37.15-35.5 37.15-34.6L37.15-34.6 37.15-24.6Q39.95-25.45 41.4-25.45L41.4-25.45Q45.2-25.45 47.4-23.43 49.6-21.4 49.6-15.9L49.6-15.9 49.6-0.4Q49.6 0.05 45.7 0.05L45.7 0.05Q41.3-0.1 41.3-0.45L41.3-0.45 41.3-15.15Q41.3-17.6 39.7-17.6L39.7-17.6Q38.6-17.6 37.15-16.55L37.15-16.55ZM72.75-1.35L72.75-1.35Q69.59 0.5 64.64 0.5 59.7 0.5 56.3-2.88 52.89-6.25 52.89-12.23 52.89-18.2 56.17-21.85 59.45-25.5 64.44-25.5 69.44-25.5 72.17-22.95 74.89-20.4 74.89-16.75L74.89-16.75Q74.89-8.65 65.59-8.65L65.59-8.65 62.14-8.65Q62.14-7.15 62.97-6.58 63.8-6 65.39-6L65.39-6Q68.89-6 72.05-7.6L72.05-7.6Q72.09-7.65 72.5-6.9L72.5-6.9Q73.69-4.75 73.69-3.28 73.69-1.8 72.75-1.35ZM66.5-15.8L66.5-15.8Q66.5-17.9 64.44-17.9L64.44-17.9Q63.49-17.9 62.82-17.32 62.14-16.75 62.14-15.65L62.14-15.65 62.14-14.1 64.84-14.1Q66.5-14.1 66.5-15.8ZM97.04-1.35L97.04-1.35Q93.89 0.5 88.94 0.5 83.99 0.5 80.59-2.88 77.19-6.25 77.19-12.23 77.19-18.2 80.47-21.85 83.74-25.5 88.74-25.5 93.74-25.5 96.47-22.95 99.19-20.4 99.19-16.75L99.19-16.75Q99.19-8.65 89.89-8.65L89.89-8.65 86.44-8.65Q86.44-7.15 87.27-6.58 88.09-6 89.69-6L89.69-6Q93.19-6 96.34-7.6L96.34-7.6Q96.39-7.65 96.79-6.9L96.79-6.9Q97.99-4.75 97.99-3.28 97.99-1.8 97.04-1.35ZM90.79-15.8L90.79-15.8Q90.79-17.9 88.74-17.9L88.74-17.9Q87.79-17.9 87.12-17.32 86.44-16.75 86.44-15.65L86.44-15.65 86.44-14.1 89.14-14.1Q90.79-14.1 90.79-15.8ZM113.19 0L113.19 9.1Q113.19 9.45 108.91 9.45 104.64 9.45 104.64 9.1L104.64 9.1 104.64-16.65 102.94-16.65Q101.74-16.65 101.29-18.85L101.29-18.85Q101.14-19.55 101.14-20.65 101.14-21.75 101.84-23.25L101.84-23.25Q102.84-25.45 105.04-25.45L105.04-25.45Q106.49-25.45 107.72-24.78 108.94-24.1 109.41-23.53 109.89-22.95 109.89-22.85L109.89-22.85Q113.24-25.45 117.14-25.45 121.04-25.45 123.84-22.43 126.64-19.4 126.64-13.08 126.64-6.75 123.84-3.28 121.04 0.2 116.74 0.2L116.74 0.2Q114.79 0.2 113.19 0L113.19 0ZM115.24-16.7L115.24-16.7Q114.39-16.7 113.59-16.15L113.59-16.15 113.59-7.3Q114.44-7.2 114.97-7.2 115.49-7.2 115.79-7.2L115.79-7.2Q117.84-7.4 117.84-12.45L117.84-12.45Q117.84-16.7 115.24-16.7Z" opacity="1" transform="matrix(1,0,0,1,0,0)" fill="#ffffff" class="wordmark-text-0" data-fill-palette-color="quaternary" id="text-0"></path></svg></g></svg></g><g transform="matrix(1,0,0,1,0,94.59606630394217)"><svg viewBox="0 0 213.1584412271571 29.83117846826862" height="29.83117846826862" width="213.1584412271571"><g transform="matrix(1,0,0,1,0,0)"><svg width="213.1584412271571" viewBox="3.25 -37.7 340.49 47.660000000000004" height="29.83117846826862" data-palette-color="#ffffff"><path d="M31.25-10.5L31.25-10.5Q31.25-8.33 30.42-6.42 29.59-4.52 28.16-3.09 26.73-1.66 24.83-0.83 22.92 0 20.75 0L20.75 0 3.25 0 3.25-35.01 20.75-35.01Q22.92-35.01 24.83-34.18 26.73-33.35 28.16-31.92 29.59-30.49 30.42-28.59 31.25-26.68 31.25-24.51L31.25-24.51Q31.25-23.54 30.98-22.51 30.71-21.48 30.22-20.53 29.74-19.58 29.05-18.8 28.37-18.02 27.54-17.5L27.54-17.5Q28.39-17.04 29.08-16.25 29.76-15.45 30.25-14.5 30.74-13.55 30.99-12.51 31.25-11.47 31.25-10.5ZM10.25-13.99L10.25-7.01 20.75-7.01Q21.48-7.01 22.12-7.28 22.75-7.54 23.23-8.02 23.71-8.5 23.97-9.13 24.24-9.77 24.24-10.5L24.24-10.5Q24.24-11.23 23.97-11.87 23.71-12.5 23.23-12.98 22.75-13.45 22.12-13.72 21.48-13.99 20.75-13.99L20.75-13.99 10.25-13.99ZM10.25-28L10.25-21 20.75-21Q21.48-21 22.12-21.26 22.75-21.53 23.23-22.01 23.71-22.49 23.97-23.13 24.24-23.78 24.24-24.51L24.24-24.51Q24.24-25.24 23.97-25.88 23.71-26.51 23.23-26.99 22.75-27.47 22.12-27.73 21.48-28 20.75-28L20.75-28 10.25-28ZM58.74-21.46L46.24-6.4Q46.63-6.27 47.02-6.24 47.41-6.2 47.8-6.2L47.8-6.2Q48.78-6.2 49.68-6.47 50.58-6.74 51.38-7.24 52.17-7.74 52.79-8.46 53.42-9.18 53.81-10.06L53.81-10.06 58.69-5.15Q57.76-3.83 56.55-2.78 55.34-1.73 53.94-1 52.54-0.27 50.99 0.11 49.44 0.49 47.8 0.49L47.8 0.49Q45.04 0.49 42.61-0.54 40.18-1.56 38.36-3.39 36.55-5.22 35.5-7.75 34.45-10.28 34.45-13.31L34.45-13.31Q34.45-16.41 35.5-18.97 36.55-21.53 38.36-23.34 40.18-25.15 42.61-26.15 45.04-27.15 47.8-27.15L47.8-27.15Q49.44-27.15 51-26.76 52.56-26.37 53.96-25.63 55.37-24.9 56.59-23.84 57.81-22.78 58.74-21.46L58.74-21.46ZM41.89-9.84L49.66-20.14Q49.19-20.31 48.74-20.36 48.29-20.41 47.8-20.41L47.8-20.41Q46.43-20.41 45.22-19.91 44.02-19.41 43.12-18.48 42.23-17.55 41.72-16.25 41.21-14.94 41.21-13.31L41.21-13.31Q41.21-12.94 41.25-12.48 41.28-12.01 41.37-11.54 41.45-11.06 41.57-10.62 41.7-10.18 41.89-9.84L41.89-9.84ZM82.78-36.55L82.78 0 76.07 0 76.07-36.55 82.78-36.55ZM95.72-33.25L95.72-33.25Q95.72-32.32 95.36-31.52 95.01-30.71 94.4-30.11 93.79-29.52 92.97-29.16 92.15-28.81 91.23-28.81L91.23-28.81Q90.3-28.81 89.48-29.16 88.66-29.52 88.06-30.11 87.47-30.71 87.11-31.52 86.76-32.32 86.76-33.25L86.76-33.25Q86.76-34.16 87.11-34.97 87.47-35.79 88.06-36.39 88.66-36.99 89.48-37.34 90.3-37.7 91.23-37.7L91.23-37.7Q92.15-37.7 92.97-37.34 93.79-36.99 94.4-36.39 95.01-35.79 95.36-34.97 95.72-34.16 95.72-33.25ZM94.57-26.15L94.57 0 87.86 0 87.86-26.15 94.57-26.15ZM106.36-3.34L106.36 0 99.65 0 99.65-36.55 106.36-36.55 106.36-13.5 116.3-26.1 123.96-26.1 115.3-15.21 123.96 0 116.3 0 111-9.5 106.36-3.34ZM148.69-21.46L136.19-6.4Q136.58-6.27 136.97-6.24 137.36-6.2 137.75-6.2L137.75-6.2Q138.73-6.2 139.63-6.47 140.54-6.74 141.33-7.24 142.12-7.74 142.75-8.46 143.37-9.18 143.76-10.06L143.76-10.06 148.64-5.15Q147.71-3.83 146.51-2.78 145.3-1.73 143.89-1 142.49-0.27 140.94 0.11 139.39 0.49 137.75 0.49L137.75 0.49Q134.99 0.49 132.57-0.54 130.14-1.56 128.32-3.39 126.5-5.22 125.45-7.75 124.4-10.28 124.4-13.31L124.4-13.31Q124.4-16.41 125.45-18.97 126.5-21.53 128.32-23.34 130.14-25.15 132.57-26.15 134.99-27.15 137.75-27.15L137.75-27.15Q139.39-27.15 140.95-26.76 142.51-26.37 143.92-25.63 145.32-24.9 146.54-23.84 147.76-22.78 148.69-21.46L148.69-21.46ZM131.85-9.84L139.61-20.14Q139.15-20.31 138.69-20.36 138.24-20.41 137.75-20.41L137.75-20.41Q136.39-20.41 135.18-19.91 133.97-19.41 133.08-18.48 132.19-17.55 131.67-16.25 131.16-14.94 131.16-13.31L131.16-13.31Q131.16-12.94 131.2-12.48 131.24-12.01 131.32-11.54 131.41-11.06 131.53-10.62 131.65-10.18 131.85-9.84L131.85-9.84ZM191.34-26.1L191.34 0 189.73 0 187.14-3.59Q186.19-2.73 185.12-1.99 184.06-1.25 182.89-0.7 181.72-0.15 180.49 0.17 179.25 0.49 177.98 0.49L177.98 0.49Q175.22 0.49 172.79-0.44 170.37-1.37 168.55-3.14 166.73-4.91 165.68-7.47 164.63-10.03 164.63-13.31L164.63-13.31Q164.63-16.36 165.68-18.91 166.73-21.46 168.55-23.29 170.37-25.12 172.79-26.14 175.22-27.15 177.98-27.15L177.98-27.15Q179.25-27.15 180.5-26.83 181.74-26.51 182.91-25.95 184.09-25.39 185.15-24.63 186.21-23.88 187.14-23L187.14-23 189.73-26.1 191.34-26.1ZM184.62-13.31L184.62-13.31Q184.62-14.67 184.1-15.95 183.57-17.24 182.67-18.23 181.77-19.21 180.56-19.81 179.35-20.41 177.98-20.41L177.98-20.41Q176.62-20.41 175.41-19.95 174.2-19.48 173.31-18.58 172.42-17.68 171.9-16.35 171.39-15.01 171.39-13.31L171.39-13.31Q171.39-11.6 171.9-10.27 172.42-8.94 173.31-8.03 174.2-7.13 175.41-6.67 176.62-6.2 177.98-6.2L177.98-6.2Q179.35-6.2 180.56-6.8 181.77-7.4 182.67-8.39 183.57-9.38 184.1-10.66 184.62-11.94 184.62-13.31ZM224.76 0L224.76 0 209.52 0 209.52-6.64 224.76-6.64Q225.44-6.64 225.93-7.13 226.42-7.62 226.42-8.3L226.42-8.3Q226.42-9.01 225.93-9.23 225.44-9.45 224.76-9.45L224.76-9.45 217.82-9.45Q216.09-9.45 214.57-10.11 213.06-10.77 211.94-11.9 210.81-13.04 210.17-14.55 209.52-16.06 209.52-17.8L209.52-17.8Q209.52-19.53 210.17-21.04 210.81-22.56 211.94-23.68 213.06-24.8 214.57-25.45 216.09-26.1 217.82-26.1L217.82-26.1 231.32-26.1 231.32-19.46 217.82-19.46Q217.14-19.46 216.65-18.97 216.16-18.48 216.16-17.8L216.16-17.8Q216.16-17.09 216.65-16.59 217.14-16.09 217.82-16.09L217.82-16.09 224.76-16.09Q226.46-16.09 227.98-15.52 229.49-14.94 230.61-13.92 231.74-12.89 232.4-11.45 233.06-10.01 233.06-8.3L233.06-8.3Q233.06-6.57 232.4-5.07 231.74-3.56 230.61-2.43 229.49-1.29 227.98-0.65 226.46 0 224.76 0ZM243.26-14.94L243.26 0 236.59 0 236.59-36.55 243.26-36.55 243.26-25Q244.45-25.9 245.72-26.28 246.99-26.66 248.31-26.66L248.31-26.66Q250.73-26.66 252.85-25.74 254.98-24.83 256.55-23.23 258.13-21.63 259.04-19.49 259.96-17.36 259.96-14.94L259.96-14.94 259.96 0 253.24 0 253.24-14.94 253.29-14.94Q253.29-15.97 252.9-16.88 252.51-17.8 251.83-18.48 251.14-19.17 250.24-19.56 249.34-19.95 248.31-19.95L248.31-19.95Q247.26-19.95 246.33-19.56 245.41-19.17 244.72-18.48 244.04-17.8 243.65-16.88 243.26-15.97 243.26-14.94L243.26-14.94ZM287.59-21.46L275.09-6.4Q275.48-6.27 275.87-6.24 276.26-6.2 276.65-6.2L276.65-6.2Q277.63-6.2 278.53-6.47 279.44-6.74 280.23-7.24 281.02-7.74 281.65-8.46 282.27-9.18 282.66-10.06L282.66-10.06 287.54-5.15Q286.62-3.83 285.41-2.78 284.2-1.73 282.79-1 281.39-0.27 279.84 0.11 278.29 0.49 276.65 0.49L276.65 0.49Q273.9 0.49 271.47-0.54 269.04-1.56 267.22-3.39 265.4-5.22 264.35-7.75 263.3-10.28 263.3-13.31L263.3-13.31Q263.3-16.41 264.35-18.97 265.4-21.53 267.22-23.34 269.04-25.15 271.47-26.15 273.9-27.15 276.65-27.15L276.65-27.15Q278.29-27.15 279.85-26.76 281.42-26.37 282.82-25.63 284.22-24.9 285.44-23.84 286.66-22.78 287.59-21.46L287.59-21.46ZM270.75-9.84L278.51-20.14Q278.05-20.31 277.59-20.36 277.14-20.41 276.65-20.41L276.65-20.41Q275.29-20.41 274.08-19.91 272.87-19.41 271.98-18.48 271.09-17.55 270.58-16.25 270.06-14.94 270.06-13.31L270.06-13.31Q270.06-12.94 270.1-12.48 270.14-12.01 270.22-11.54 270.31-11.06 270.43-10.62 270.55-10.18 270.75-9.84L270.75-9.84ZM313.64-21.46L301.14-6.4Q301.53-6.27 301.92-6.24 302.31-6.2 302.7-6.2L302.7-6.2Q303.68-6.2 304.58-6.47 305.49-6.74 306.28-7.24 307.07-7.74 307.69-8.46 308.32-9.18 308.71-10.06L308.71-10.06 313.59-5.15Q312.66-3.83 311.45-2.78 310.25-1.73 308.84-1 307.44-0.27 305.89 0.11 304.34 0.49 302.7 0.49L302.7 0.49Q299.94 0.49 297.51-0.54 295.08-1.56 293.27-3.39 291.45-5.22 290.4-7.75 289.35-10.28 289.35-13.31L289.35-13.31Q289.35-16.41 290.4-18.97 291.45-21.53 293.27-23.34 295.08-25.15 297.51-26.15 299.94-27.15 302.7-27.15L302.7-27.15Q304.34-27.15 305.9-26.76 307.46-26.37 308.87-25.63 310.27-24.9 311.49-23.84 312.71-22.78 313.64-21.46L313.64-21.46ZM296.79-9.84L304.56-20.14Q304.09-20.31 303.64-20.36 303.19-20.41 302.7-20.41L302.7-20.41Q301.33-20.41 300.13-19.91 298.92-19.41 298.03-18.48 297.14-17.55 296.62-16.25 296.11-14.94 296.11-13.31L296.11-13.31Q296.11-12.94 296.15-12.48 296.18-12.01 296.27-11.54 296.35-11.06 296.48-10.62 296.6-10.18 296.79-9.84L296.79-9.84ZM323.7-1.76L323.7 9.96 316.98 9.96 316.98-26.15 318.59-26.15 321.25-23Q322.16-23.85 323.23-24.61 324.31-25.37 325.47-25.92 326.63-26.46 327.87-26.78 329.12-27.1 330.38-27.1L330.38-27.1Q333.14-27.1 335.57-26.11 338-25.12 339.82-23.32 341.64-21.51 342.69-18.96 343.74-16.41 343.74-13.31L343.74-13.31Q343.74-10.08 342.69-7.51 341.64-4.93 339.82-3.14 338-1.34 335.57-0.39 333.14 0.56 330.38 0.56L330.38 0.56Q329.51 0.56 328.64 0.37 327.77 0.17 326.93-0.16 326.09-0.49 325.27-0.9 324.45-1.32 323.7-1.76L323.7-1.76ZM337.05-13.31L337.05-13.31Q337.05-14.97 336.53-16.28 336-17.6 335.1-18.52 334.19-19.43 332.97-19.92 331.75-20.41 330.38-20.41L330.38-20.41Q329.02-20.41 327.81-19.92 326.6-19.43 325.7-18.52 324.79-17.6 324.27-16.28 323.74-14.97 323.74-13.31L323.74-13.31Q323.74-11.72 324.27-10.4 324.79-9.08 325.7-8.15 326.6-7.23 327.81-6.71 329.02-6.2 330.38-6.2L330.38-6.2Q331.75-6.2 332.97-6.71 334.19-7.23 335.1-8.15 336-9.08 336.53-10.4 337.05-11.72 337.05-13.31Z" opacity="1" transform="matrix(1,0,0,1,0,0)" fill="#ffffff" class="slogan-text-1" data-fill-palette-color="quaternary" id="text-1"></path></svg></g></svg></g></svg></g></svg></g><g transform="matrix(1,0,0,1,40.713262274387006,0)"><svg viewBox="0 0 131.7319166783831 110.65640020762964" height="110.65640020762964" width="131.7319166783831"><g><svg xmlns="http://www.w3.org/2000/svg" xmlns:xlink="http://www.w3.org/1999/xlink" version="1.1" x="0" y="0" viewBox="3.2860000000000085 10.970000000000002 94.08198130029902 79.03" enable-background="new 0 0 100 100" xml:space="preserve" height="110.65640020762964" width="131.7319166783831" class="icon-icon-0" data-fill-palette-color="quaternary" id="icon-0"><path d="M85.45 19.077c-0.915-0.249-1.88-0.522-2.863-0.794 0.115-0.678 0.132-1.424-0.003-2.202-0.432-2.481-3.725-3.979-3.725-3.979s-2.431 2.376-2.185 4.781c-0.797-0.133-1.564-0.225-2.288-0.261-0.2-0.721-0.493-1.455-0.905-2.17-1.769-3.082-6.854-3.482-6.854-3.482s-2.222 4.597-0.455 7.676c0.545 0.947 1.216 1.731 1.938 2.349-1.7-0.759-3.584-1.179-5.563-1.179-4.732 0-9.046 2.438-11.499 6.361-2.132-0.963-4.448-1.465-6.801-1.465-5.452 0-10.417 2.608-13.503 6.954-2.995-2.587-6.825-4.031-10.848-4.031-9.159 0-16.61 7.451-16.61 16.609 0 2.702 0.661 5.354 1.919 7.734-0.709 1.646-1.081 3.436-1.081 5.234 0 6.835 5.216 12.474 11.876 13.147V83c0 1.657 1.343 3 3 3s3-1.343 3-3V71.115c1.799 0.725 3.723 1.104 5.688 1.104 0.104 0 0.208-0.011 0.312-0.013V87c0 1.657 1.343 3 3 3s3-1.343 3-3V70.853c1.058-0.48 2.066-1.076 3-1.795 2.901 2.26 6.45 3.486 10.169 3.486 2.018 0 3.984-0.375 5.831-1.07V83c0 1.657 1.343 3 3 3s3-1.343 3-3V69.958c1.772 0.841 3.718 1.288 5.704 1.288 0.438 0 0.869-0.024 1.296-0.065V87c0 1.657 1.343 3 3 3s3-1.343 3-3V69.064c3.648-2.389 6.067-6.506 6.067-11.183 0-0.5-0.028-1.001-0.084-1.5 3.368-3.138 5.277-7.499 5.277-12.138 0-3.262-0.979-6.4-2.717-9.06 0.746 0.195 1.537 0.399 2.384 0.628 7.699 2.084 13.054-0.367 14.267-4.848C98.407 26.484 93.148 21.162 85.45 19.077zM74.58 54.043l-0.941 0.763 0.239 1.188c0.126 0.621 0.189 1.257 0.189 1.889 0 2.215-0.777 4.25-2.067 5.854-1.461 1.817-3.584 3.072-6 3.409-0.425 0.06-0.855 0.101-1.296 0.101-2.065 0-4.068-0.697-5.704-1.961-0.139-0.107-0.28-0.212-0.413-0.327l-1.377-1.192-1.315 1.26c-0.875 0.837-1.851 1.533-2.895 2.081-1.786 0.938-3.776 1.438-5.831 1.438-3.291 0-6.407-1.267-8.773-3.567l-1.399-1.359-1.394 1.365c-0.498 0.488-1.037 0.92-1.602 1.302-1.77 1.197-3.836 1.861-6 1.921-0.104 0.002-0.207 0.015-0.312 0.015-2.01 0-3.961-0.537-5.688-1.55-0.182-0.107-0.363-0.214-0.54-0.331l-0.763-0.507-0.882 0.247c-0.827 0.23-1.66 0.348-2.478 0.348-0.456 0-0.9-0.044-1.338-0.108-4.447-0.651-7.876-4.481-7.876-9.106 0-1.521 0.38-3.03 1.1-4.364l0.548-1.018-0.608-0.983c-1.229-1.988-1.878-4.271-1.878-6.603 0-6.953 5.657-12.609 12.61-12.609 3.758 0 7.293 1.66 9.701 4.554l1.975 2.374 1.359-2.772c2.14-4.366 6.476-7.079 11.317-7.079 2.326 0 4.605 0.648 6.591 1.874l1.985 1.226 0.908-2.149c1.5-3.552 4.96-5.847 8.815-5.847 4.745 0 8.716 3.406 9.439 8.099l0.146 0.945 0.828 0.479c3.887 2.254 6.301 6.432 6.301 10.904C79.261 48.063 77.555 51.635 74.58 54.043z" fill="#ffffff" data-fill-palette-color="quaternary"></path></svg></g></svg></g><g></g></svg></g></svg></g></svg></g></svg></g><defs></defs></svg><rect width="333.90454557049503" height="333.90454557049503" fill="none" stroke="none" visibility="hidden"></rect></g></svg></g></svg>